<mxfile host="Electron" modified="2024-04-27T16:40:13.986Z" agent="Mozilla/5.0 (Windows NT 10.0; Win64; x64) AppleWebKit/537.36 (KHTML, like Gecko) draw.io/22.1.11 Chrome/114.0.5735.289 Electron/25.9.8 Safari/537.36" etag="T8spUSw5NgwGyTIUOwwu" version="22.1.11" type="device">
  <diagram name="第 1 页" id="d-qlLgbnq9rZS_cFS39g">
    <mxGraphModel dx="2058" dy="1188" grid="1" gridSize="10" guides="1" tooltips="1" connect="1" arrows="1" fold="1" page="1" pageScale="1" pageWidth="827" pageHeight="1169" math="0" shadow="0">
      <root>
        <mxCell id="0" />
        <mxCell id="1" parent="0" />
        <mxCell id="ypBWeRALG4_Q565nqndn-2" value="" style="shape=image;verticalLabelPosition=bottom;labelBackgroundColor=default;verticalAlign=top;aspect=fixed;imageAspect=0;image=data:image/png,iVBORw0KGgoAAAANSUhEUgAAAcMAAABxCAIAAAAmkV9DAAAACXBIWXMAAA7EAAAOxAGVKw4bAAAAEXRFWHRTb2Z0d2FyZQBTbmlwYXN0ZV0Xzt0AAAldSURBVHic7dxvbBPnHcDx52zHxontEJM/UAh/k9DCSoF1oyGwvChEJHStSqe2mG2MaoO8YCsoosraMUXJBtuqrEhIY9JgaN0aqcCGWiBQBIPRhX+jbCjbVJxQCA6QOOCRxI4TO8nthalBQAvk8eXi+Pt5g32G808Ply8+n7EQAAAAAAAAAAAAgAxF8s+rqhqTOQBAa4oiW7wvYorJXlo9npqyspQDB7x+v5DPM4a8yL+fmTZbYNEiV3V1VnZ29KFmT+v6sppTB1I6/F6OBQ2oDlvmnEWBqmrXuOys6FZP65WymooDKf/0e9vvWPXEXH81+qstM3VRYFa1qyI7a6ymTxmD16RNbndtfn6Bz5cUk4kQV8JC1Dmdi0+eHJ+bK4RocDctya/t9xUogsNBQ6oIG5x1u08uzskdL4RwNzXm1y7zFRhFUmKm80uFVWdd38nFNbnjp2j3mtQgv4td5eWFZDRRJQlR6PPtKC+P3K0q36X6Csmo1hSRpPoKK8t3RO6W79rgKzSR0ftLUnyFpvIdP9f0SWJQUsfBg/wFJjJFCMehQ5Hb/zjoSNQzysGnfHLIEbl10HGOVf8yijjkqNf0GWJQUm9Xl/xOENe8gUDkRmeXV99JEkpn4NZqd3k79J1k6AtovEQxKCkg+AiHHlj1h6cKbRcrBiXlrALK7Z9pDofBo6qfr7ZmF1KGDVUZ8iXlI6WIvjriYBhM0cVm2R9I6wXi7B4AZFFSAJBFSQFAFiUFAFmUFABkUVIAkEVJAUAWJQUAWZQUAGRRUgCQRUkBQBYlBQBZlBQAZFFSAJBFSQFAFiUFAFmUFABkUVIAkEVJAUAWJQUAWZQUAGRRUgCQRUkBQBYlBQBZlBQAZFFSAJBFSQFAFiUFAFmUFABkUVIAkEVJAUAWJQUAWSa9BwD09NX5yZMeN6fYDd1Btfmz0Nm/B4OBfr2HimO55uyvW5/IMKb1iT5v7/8+6T7fGGrWe6jBQEmlWOfMGVVebispCTU2Nj//fOjCBb0nwsOaNnvEinWjCp+zJdtunZn1htXTR7q2/uL66SNd+s4Wj2wGa5lz6XdSF00xj41uPB+6/Mf2A7+68V5Y7dVxtkFASQcurbTUuWaNIS1NMZsVo1HvcfAIcqZb3tw8euZc65ljXcf2+W+09o4cZZxXbJtblJIxxvTGsisN9T16zxhnqjJ+sMb5yqXwtV/e+JM75DEJ48wRuctTi3+WsdIgDFXXt+s9oLYo6QCN3rIlrbS06+jR66+/Pm7nTr3HwaNZ7HLMnGs9faSrsvTaJXcosvFve/2V28bMnpdc9C1HQ32bvhPGl2dTnv5e6uKQGv5Ryzt7/HXR7Z5w64bM0lccz267uedq73UdJ9QaV5wGwmC3W6ZO9W3adHXFCjUY1HscPLKcr1iuXQ4f3t0ZzagQ4pI7dOqvXUKIcZOS9BstLs0akXe5t2V357E7MyqE2Oc/0Rz25pmzH7dM0Gu2wcFr0oFQg8H2mpqbW7cKIZLGj9d7HDyyytIWg1Ex3RPMnmC/EEJRdBgprm327Xy/45DDkHLX9h411K2GQmpvnzrMr+NR0oFQe3sjGUWcart2/wsgk5+wCCEung/d91F8kR417Al7790+a0Rejnncme5P/9tzcfCnGkyUFLilZKljwRJ74396ju7x6z1LHHMaHX1qf5Ypba71ybJRSzv6A7+/ubet76bec2mLkgJCCDFvkW3VT9IVRWx/+8b5c916jxOvjMKwfcxbmaa0UUaHRTEfD9ZXtG37c+dRvefSHFecAPHiayMrt41JH23a9GbbB39o13uc+GZUDFbFYlJMQojHTOkzRuRMTBqj91Ca4zUpEprFqny/PP27a51t13qr17Xtq+nQe6L41if6S1veFkIkK5bplsnLUot+mr7iKUvO6tZfN9/vjdRhg5IicTkzTasr019elVZ/Orh5fdvxgwG9JxoOosV0hzxnu887jY4X7PMPd53Z7Nul72Ca4uweCcqRZly7MePlVWkf7/dXrGwhozLSjak55nHpxtS7tjeFW/7V3SCEmGoe5h8WpKRIUCvfSn/xtZFHPuzc8MNWLjFJ2pS1Zm/222udr9770AjFLIQY9p8npaRIRM99O9W1Oq3+dHDTj9s8F/j0qKxzPQ1TzeOLbc9Ms0y8c/s0y8R5yTOEEI3hYf6NULxPOhAOl8s8ZUr0rsFuN9hsDpcruuV6VZUec+FhlbzqMFuUuo8CC1+yL3zJfu9v+G3VcP5P4jH3QefHL9jnF1hnbBm97v2Ow5Fv0ptkfszlWPikZcrxYP1H/lN6z6gtSjoQhuTkjMrKO7eYxo6Nbgk1NlLSIS57ilkIUbo+/b6PXvw0REkfiTvkeaP1N2Wjli6xF34jeWbkO/SSFJMQotZ/YuONd90hj94zaouSDkRPff3V5cv1ngID97uNhDLGjgfrjzfXf9NWMN0yOcM0UhFKe5//3z2f7fMf71aH//snlHQggqdOBU8N87OV4e3Dd/n4vSb2+Ovu+jqoBMEVJwCQRUkBQBYlBQBZlBQAZFFSAJBFSQFAFiUFAFmUFABkUVIAkEVJAUAWJQUAWZQUAGRRUgCQRUkBQBYlBQBZlBQAZFFSAJBFSQFAFiUFAFmUFABkUVIAkEVJAUAWJQUAWZQUAGRRUgCQRUkBQBYlBQBZlBQAZFFSAJBFSQFAFiUFAFmUFABkxaCkiqLI7wTx7fNjgINhMEUXm2V/IK0XKAYlVeV3gXh3+yeZw2Hw3LHqLPsDKBq3lLN7xAKvifTAqj+8OChpltUqvxPEtYzk5MgNmzVL30kSii05I3LDmmXXd5KhLzlD2yWKQUnbi4rkd4L4pQrRuWBB5PbXitr1HSaRqE8v6IzcKmp/St9RhjpVLOicoekzyL7iVVW1ye2uzc8v8PmSYjIR4kpYiDqns+TEiQl5eUKIBnfTkvzafl+BIjgcNKSKsMFZ95cTJbl5E4QQ7qbG/NplvgKjSOKE/x5h1VnXd6LkvbwJOdpdmotBSYUQrR5PTVmZbf9+byAQi6kQHzJTUvzFxa7q6qzs7OjGZk/r+rKak/ttnQGvjrMNY/aUzGeK/VXVrnHZt99L8bReKaup2G87G/B26jjbUJOSaS/2z652VWRnjRVafsghNiUFgKFPu5Jy7R4AZFFSAJBFSQFAFiUFAFmUFABkUVIAkEVJAUAWJQUAWf8H0C2pvXIbH78AAAAASUVORK5CYII=;" parent="1" vertex="1">
          <mxGeometry x="80" y="360" width="451" height="113" as="geometry" />
        </mxCell>
        <mxCell id="ypBWeRALG4_Q565nqndn-3" value="" style="endArrow=classic;startArrow=classic;html=1;rounded=0;" parent="1" edge="1">
          <mxGeometry width="50" height="50" relative="1" as="geometry">
            <mxPoint x="100" y="280" as="sourcePoint" />
            <mxPoint x="500" y="280" as="targetPoint" />
          </mxGeometry>
        </mxCell>
        <mxCell id="ypBWeRALG4_Q565nqndn-4" value="400" style="text;html=1;align=center;verticalAlign=middle;resizable=0;points=[];autosize=1;strokeColor=none;fillColor=none;fontSize=18;" parent="1" vertex="1">
          <mxGeometry x="280.5" y="223" width="50" height="40" as="geometry" />
        </mxCell>
        <mxCell id="ypBWeRALG4_Q565nqndn-5" value="" style="endArrow=classic;startArrow=classic;html=1;rounded=0;" parent="1" edge="1">
          <mxGeometry width="50" height="50" relative="1" as="geometry">
            <mxPoint x="100" y="330" as="sourcePoint" />
            <mxPoint x="270" y="330" as="targetPoint" />
          </mxGeometry>
        </mxCell>
        <mxCell id="ypBWeRALG4_Q565nqndn-6" value="" style="endArrow=classic;startArrow=classic;html=1;rounded=0;" parent="1" edge="1">
          <mxGeometry width="50" height="50" relative="1" as="geometry">
            <mxPoint x="270" y="330" as="sourcePoint" />
            <mxPoint x="400" y="330" as="targetPoint" />
          </mxGeometry>
        </mxCell>
        <mxCell id="ypBWeRALG4_Q565nqndn-7" value="" style="endArrow=classic;startArrow=classic;html=1;rounded=0;" parent="1" edge="1">
          <mxGeometry width="50" height="50" relative="1" as="geometry">
            <mxPoint x="401" y="330" as="sourcePoint" />
            <mxPoint x="500" y="330" as="targetPoint" />
          </mxGeometry>
        </mxCell>
        <mxCell id="ypBWeRALG4_Q565nqndn-8" value="175" style="text;html=1;align=center;verticalAlign=middle;resizable=0;points=[];autosize=1;strokeColor=none;fillColor=none;fontSize=18;" parent="1" vertex="1">
          <mxGeometry x="160" y="290" width="50" height="40" as="geometry" />
        </mxCell>
        <mxCell id="ypBWeRALG4_Q565nqndn-9" value="125" style="text;html=1;align=center;verticalAlign=middle;resizable=0;points=[];autosize=1;strokeColor=none;fillColor=none;fontSize=18;" parent="1" vertex="1">
          <mxGeometry x="310" y="290" width="50" height="40" as="geometry" />
        </mxCell>
        <mxCell id="ypBWeRALG4_Q565nqndn-10" value="100" style="text;html=1;align=center;verticalAlign=middle;resizable=0;points=[];autosize=1;strokeColor=none;fillColor=none;fontSize=18;" parent="1" vertex="1">
          <mxGeometry x="430" y="290" width="50" height="40" as="geometry" />
        </mxCell>
        <mxCell id="ypBWeRALG4_Q565nqndn-11" value="" style="endArrow=none;html=1;rounded=0;" parent="1" edge="1">
          <mxGeometry width="50" height="50" relative="1" as="geometry">
            <mxPoint x="100" y="490" as="sourcePoint" />
            <mxPoint x="200" y="490" as="targetPoint" />
          </mxGeometry>
        </mxCell>
        <mxCell id="ypBWeRALG4_Q565nqndn-12" value="" style="endArrow=none;html=1;rounded=0;" parent="1" edge="1">
          <mxGeometry width="50" height="50" relative="1" as="geometry">
            <mxPoint x="280.5" y="490" as="sourcePoint" />
            <mxPoint x="380.5" y="490" as="targetPoint" />
          </mxGeometry>
        </mxCell>
        <mxCell id="ypBWeRALG4_Q565nqndn-13" value="" style="endArrow=none;html=1;rounded=0;" parent="1" edge="1">
          <mxGeometry width="50" height="50" relative="1" as="geometry">
            <mxPoint x="400" y="490" as="sourcePoint" />
            <mxPoint x="460" y="490" as="targetPoint" />
          </mxGeometry>
        </mxCell>
        <mxCell id="ypBWeRALG4_Q565nqndn-14" value="100-250" style="text;html=1;align=center;verticalAlign=middle;resizable=0;points=[];autosize=1;strokeColor=none;fillColor=none;fontSize=18;" parent="1" vertex="1">
          <mxGeometry x="100" y="500" width="90" height="40" as="geometry" />
        </mxCell>
        <mxCell id="ypBWeRALG4_Q565nqndn-15" value="100-150" style="text;html=1;align=center;verticalAlign=middle;resizable=0;points=[];autosize=1;strokeColor=none;fillColor=none;fontSize=18;" parent="1" vertex="1">
          <mxGeometry x="280" y="500" width="90" height="40" as="geometry" />
        </mxCell>
        <mxCell id="ypBWeRALG4_Q565nqndn-16" value="50-150" style="text;html=1;align=center;verticalAlign=middle;resizable=0;points=[];autosize=1;strokeColor=none;fillColor=none;fontSize=18;" parent="1" vertex="1">
          <mxGeometry x="395" y="500" width="80" height="40" as="geometry" />
        </mxCell>
      </root>
    </mxGraphModel>
  </diagram>
</mxfile>
